<svg width="433" height="453" viewBox="0 0 433 453" fill="none" xmlns="http://www.w3.org/2000/svg">
<path d="M277.627 76.4716L208.478 16.2443C203.99 12.3355 197.207 12.705 193.171 17.0781L17.329 207.573L131.314 108.724C135.392 105.188 141.433 105.132 145.574 108.593L225.604 175.464C228.236 177.664 231.744 178.509 235.09 177.75L266.531 170.618C270.031 169.824 273.698 170.788 276.356 173.199L400.209 285.584L417.835 265.399C421.762 260.901 421.384 254.092 416.984 250.057L286.615 130.495C284.465 128.523 283.186 125.778 283.06 122.863L281.392 84.2912C281.262 81.2788 279.901 78.452 277.627 76.4716Z" fill="#006D77" fill-opacity="0.51" style="fill:#006D77;fill:color(display-p3 0.0000 0.4275 0.4667);fill-opacity:0.51;"/>
<path d="M269.341 436.901C266.592 439.619 262.21 439.748 259.306 437.198L10.9209 219.047C9.65419 217.935 9.55266 215.997 10.6962 214.758L17.329 207.573M325.72 381.154L403.312 304.432C407.601 300.191 407.674 293.286 403.475 288.954L400.209 285.584M400.209 285.584L417.835 265.399C421.762 260.901 421.384 254.092 416.984 250.057L286.615 130.495C284.465 128.523 283.186 125.778 283.06 122.863L281.392 84.2912C281.262 81.2788 279.901 78.452 277.627 76.4716L208.478 16.2443C203.99 12.3355 197.207 12.705 193.171 17.0781L17.329 207.573M400.209 285.584L276.356 173.199C273.698 170.788 270.031 169.824 266.531 170.618L235.09 177.75C231.744 178.509 228.236 177.664 225.604 175.464L145.574 108.593C141.433 105.132 135.392 105.188 131.314 108.724L17.329 207.573" stroke="black" style="stroke:black;stroke-opacity:1;" stroke-width="18"/>
</svg>
